grf
version=1
nRows=16
nColumns=28
inDegrees=no
endheader
time	ground_force_1_vx	ground_force_1_vy	ground_force_1_vz	ground_force_1_px	ground_force_1_py	ground_force_1_pz	ground_moment_1_mx	ground_moment_1_my	ground_moment_1_mz	ground_force_2_vx	ground_force_2_vy	ground_force_2_vz	ground_force_2_px	ground_force_2_py	ground_force_2_pz	ground_moment_2_mx	ground_moment_2_my	ground_moment_2_mz	ground_force_3_vx	ground_force_3_vy	ground_force_3_vz	ground_force_3_px	ground_force_3_py	ground_force_3_pz	ground_moment_3_mx	ground_moment_3_my	ground_moment_3_mz
      0.00000000	      0.48517444	      0.32975580	      1.90164501	    280.85171532	  -1243.80241149	      2.01422309	      0.06112828	      0.22104064	    121.11836849	      0.15723143	     -0.50927464	      2.35680888	    150.51909098	  -1630.78538174	      0.22693269	      0.01476584	      0.19096572	   -228.82914569	      1.73800482	     -0.41578641	      5.02214369	    443.18533588	   -301.97490528	      0.41597908	     -0.10462172	      0.76854351	    374.23469064
      0.01000000	      0.23150213	      0.34142059	      1.09380324	    212.89835303	  -1307.11152644	      2.16405800	      0.06339968	      0.22925406	    125.61888089	      0.37386579	     -0.05396007	      2.47663997	    180.05112364	  -1599.04243472	      0.25532890	     -0.00301928	     -0.03904817	     46.79038797	      1.56536584	     -0.58393397	      4.62651852	    441.10695158	   -273.60435527	      0.35713514	     -0.13385891	      0.98331777	    478.81690053
      0.02000000	      0.47773543	      0.37004978	      1.57168898	    284.17249647	  -1281.52686425	      2.08139410	      0.04453527	      0.16104012	     88.24131257	      0.16495003	      0.15599247	      3.03809234	    182.01171767	  -1633.74781862	      0.22649259	     -0.00462510	     -0.05981617	     71.67612646	      1.53748179	     -0.65060307	      5.19006735	    439.92304645	   -327.60275611	      0.46769746	     -0.06191136	      0.45479631	    221.45857991
      0.03000000	      0.24844557	      0.48751865	      1.48193723	    236.11461453	  -1379.61677823	      2.28466263	      0.05444559	      0.19687596	    107.87742766	      0.38814569	      0.78997268	      1.66067700	     38.18499618	  -1389.70528440	      0.42087358	     -0.02870585	     -0.37125104	    444.86024907	      1.59927561	     -0.70270348	      4.95897219	    424.07044764	   -347.24130388	      0.50359620	     -0.07964635	      0.58507630	    284.89714160
      0.04000000	      0.55202154	      0.43694340	      1.36864010	    211.84499018	  -1262.97331082	      2.08403752	      0.09463071	      0.34218589	    187.49944085	      0.17366139	      1.00203956	      2.66456385	    181.71997052	  -1547.82170087	      0.29818204	     -0.01345438	     -0.17400461	    208.50509926	      1.61540896	     -0.59618619	      4.93112777	    436.00985282	   -337.14960861	      0.48620929	     -0.10855458	      0.79743402	    388.30263769
      0.05000000	      0.52548435	      0.20835629	      1.18865380	    200.11294699	  -1356.74630686	      2.26109409	      0.03986369	      0.14414762	     78.98513448	      0.22819390	      1.04906734	      2.44871712	    142.34974258	  -1562.97467906	      0.28299589	     -0.02076222	     -0.26851656	    321.75625393	      1.54092235	     -0.45622008	      5.09876477	    418.43207357	   -309.34120257	      0.42418674	     -0.08995960	      0.66083665	    321.78789487
      0.06000000	      0.71133013	      0.36582222	      1.77882351	    301.36723233	  -1285.04480991	      2.07913618	      0.02757081	      0.09969640	     54.62825882	      0.26267009	      1.42597258	      2.27842602	    140.35806353	  -1578.44261806	      0.26995885	     -0.02496176	     -0.32282889	    386.83728102	      1.61492902	     -0.50100575	      4.95183071	    438.27796454	   -335.64348108	      0.48375032	     -0.09643117	      0.70837633	    344.93687256
      0.07000000	      0.51434374	      0.46609328	      1.56770894	    291.84051619	  -1293.31936701	      2.09904535	      0.03315838	      0.11990112	     65.69935737	      5.23694981	    -13.26178116	    -32.55662050	    494.71634637	  -2045.33160623	     -0.09680996	     -0.00140778	     -0.01820677	     21.81668829	      1.54162340	     -0.56549575	      4.63435894	    466.67476923	   -322.37246672	      0.46443509	     -0.10732363	      0.78839158	    383.89951093
      0.08000000	      0.37766166	      0.21222723	      1.88816229	    311.93240417	  -1300.36557807	      2.10176431	      0.02064449	      0.07465076	     40.90459541	     -2.01420353	     27.78312215	   -133.13650632	    485.06582293	  -2026.52518897	     -0.08173809	      0.03205462	      0.41456043	   -496.75673950	      1.47018437	     -0.64580135	      4.69005669	    451.15350264	   -315.64987033	      0.44629014	     -0.10639527	      0.78157191	    380.57873924
      0.09000000	      0.78128929	      0.27720873	      1.23510709	    205.37410368	  -1423.56199402	      2.38037721	     -0.01227742	     -0.04439533	    -24.32624890	    -38.28650514	     66.09396649	   -290.53597823	    497.55334902	  -2021.20641630	     -0.07649360	      0.09896425	      1.27989855	  -1533.66840986	      1.51376321	     -0.23559956	      4.52110354	    440.64999040	   -309.20270950	      0.43011361	     -0.11392869	      0.83691185	    407.52598058
      0.10000000	      0.64651392	      0.41231793	      1.66165921	    291.29856888	  -1394.11918643	      2.28327822	      0.01904598	      0.06887050	     37.73732336	    -76.09920236	      4.77254320	   -464.37897632	    504.68397100	  -2001.04182139	     -0.05920544	      0.02017198	      0.26088296	   -312.60912184	      1.58064237	     -0.45546259	      5.25430068	    429.47282557	   -302.90482505	      0.41405531	     -0.12252139	      0.90003318	    438.26228830
      0.11000000	      0.53713329	     -0.02316072	      1.92039223	    334.39505423	  -1365.92416105	      2.21007165	      0.01788362	      0.06466739	     35.43424909	    -84.75716604	    -99.59910015	   -616.68902938	    503.44219541	  -1984.09946031	     -0.04514659	     -0.15192402	     -1.96482393	   2354.39629071	      1.35376506	     -0.29485577	      4.29895322	    450.75328042	   -301.21893863	      0.41654231	     -0.10580376	      0.77722669	    378.46288030
      0.12000000	      0.38827938	      0.47288600	      0.91978897	    182.42077303	  -1517.07036719	      2.56261421	      0.02357749	      0.08525651	     46.71597777	    -77.36021998	   -154.52492545	   -770.41734696	    498.52630683	  -1967.99089462	     -0.03202066	     -0.20497265	     -2.65089861	   3176.50134263	      1.48962139	     -0.12378958	      4.56447252	    432.81180184	   -296.45529790	      0.40174375	     -0.15454564	      1.13528099	    552.81388996
      0.13000000	      0.49652228	      0.34608805	      1.32987486	    322.01918867	  -1473.38327891	      2.41243028	     -0.00638631	     -0.02309299	    -12.65371668	    -44.95924182	   -184.97409169	   -928.20416001	    492.45226200	  -1955.39404036	     -0.02190010	     -0.07213696	     -0.93294279	   1117.92054905	      1.44340661	     -0.21806483	      4.65614165	    438.99554855	   -328.70315643	      0.46969800	     -0.07124208	      0.52333910	    254.83482034
      0.14000000	      0.79241576	      0.25001723	      1.80856860	    355.21151772	  -1349.99837826	      2.17050110	     -0.00750228	     -0.02712833	    -14.86486509	     12.83555528	   -220.57250247	  -1024.72814222	    487.12219257	  -1947.16300463	     -0.01537495	      0.16080259	      2.07964989	  -2491.98918428	      1.34606350	     -0.40065133	      4.37106800	    446.92640076	   -308.76451690	      0.43096836	     -0.06990686	      0.51353068	    250.05870607
      0.15000000	      0.68723619	      0.28614384	      1.73904808	    369.14764880	  -1410.85757490	      2.27453540	     -0.01131086	     -0.04090022	    -22.41111714	     35.49866540	   -236.21205826	  -1052.67000737	    484.02697241	  -1940.25126589	     -0.00980660	      0.12211846	      1.57935047	  -1892.49368752	      1.46266986	     -0.61559762	      4.94187522	    496.17214642	   -313.73846376	      0.45495029	     -0.08981089	      0.65974423	    321.25595126
